<svg xmlns="http://www.w3.org/2000/svg" viewBox="0 0 48 48" width="48" height="48">
  <defs>
    <linearGradient id="bg" x1="0%" y1="0%" x2="100%" y2="100%">
      <stop offset="0%" style="stop-color:#2563eb"/>
      <stop offset="100%" style="stop-color:#4f46e5"/>
    </linearGradient>
  </defs>
  <rect width="48" height="48" rx="10" fill="url(#bg)"/>
  <path d="M14 12h14c1.1 0 2 .9 2 2v2c0 1.1-.9 2-2 2H14c-1.1 0-2-.9-2-2v-2c0-1.1.9-2 2-2z" fill="rgba(255,255,255,0.3)"/>
  <path d="M14 22h20c1.1 0 2 .9 2 2v2c0 1.1-.9 2-2 2H14c-1.1 0-2-.9-2-2v-2c0-1.1.9-2 2-2z" fill="rgba(255,255,255,0.5)"/>
  <path d="M14 32h10c1.1 0 2 .9 2 2v2c0 1.1-.9 2-2 2H14c-1.1 0-2-.9-2-2v-2c0-1.1.9-2 2-2z" fill="rgba(255,255,255,0.8)"/>
</svg>
